<mxfile host="app.diagrams.net" modified="2022-02-02T05:07:23.748Z" agent="5.0 (Macintosh; Intel Mac OS X 10_15_7) AppleWebKit/537.36 (KHTML, like Gecko) Chrome/97.0.4692.99 Safari/537.36" etag="lg49DSxgE6IH56fLIaQd" version="16.5.2" type="github">
  <diagram id="m9vtPu1y-cJARTY_2RRp" name="Page-1">
    <mxGraphModel dx="998" dy="631" grid="1" gridSize="10" guides="1" tooltips="1" connect="1" arrows="1" fold="1" page="1" pageScale="1" pageWidth="2336" pageHeight="1654" math="0" shadow="0">
      <root>
        <mxCell id="0" />
        <mxCell id="1" parent="0" />
        <mxCell id="udb_rScgTkDOsQekTv7v-10" style="edgeStyle=orthogonalEdgeStyle;rounded=0;orthogonalLoop=1;jettySize=auto;html=1;entryX=0.5;entryY=0;entryDx=0;entryDy=0;" edge="1" parent="1" source="udb_rScgTkDOsQekTv7v-1" target="udb_rScgTkDOsQekTv7v-5">
          <mxGeometry relative="1" as="geometry" />
        </mxCell>
        <mxCell id="udb_rScgTkDOsQekTv7v-12" style="edgeStyle=orthogonalEdgeStyle;rounded=0;orthogonalLoop=1;jettySize=auto;html=1;entryX=0.543;entryY=-0.047;entryDx=0;entryDy=0;entryPerimeter=0;startArrow=classic;startFill=1;" edge="1" parent="1" source="udb_rScgTkDOsQekTv7v-1" target="udb_rScgTkDOsQekTv7v-6">
          <mxGeometry relative="1" as="geometry">
            <Array as="points">
              <mxPoint x="700" y="435" />
              <mxPoint x="615" y="435" />
            </Array>
          </mxGeometry>
        </mxCell>
        <mxCell id="udb_rScgTkDOsQekTv7v-13" style="edgeStyle=orthogonalEdgeStyle;rounded=0;orthogonalLoop=1;jettySize=auto;html=1;exitX=1;exitY=0.5;exitDx=0;exitDy=0;startArrow=classic;startFill=1;" edge="1" parent="1" source="udb_rScgTkDOsQekTv7v-1" target="udb_rScgTkDOsQekTv7v-7">
          <mxGeometry relative="1" as="geometry" />
        </mxCell>
        <mxCell id="udb_rScgTkDOsQekTv7v-1" value="Packet Manager&lt;br&gt;(Service/Library)" style="rounded=0;whiteSpace=wrap;html=1;" vertex="1" parent="1">
          <mxGeometry x="650" y="340" width="190" height="60" as="geometry" />
        </mxCell>
        <mxCell id="udb_rScgTkDOsQekTv7v-11" style="edgeStyle=orthogonalEdgeStyle;rounded=0;orthogonalLoop=1;jettySize=auto;html=1;entryX=0.683;entryY=-0.003;entryDx=0;entryDy=0;entryPerimeter=0;startArrow=classic;startFill=1;" edge="1" parent="1" source="udb_rScgTkDOsQekTv7v-2" target="udb_rScgTkDOsQekTv7v-1">
          <mxGeometry relative="1" as="geometry" />
        </mxCell>
        <mxCell id="udb_rScgTkDOsQekTv7v-2" value="Registration Processor" style="rounded=0;whiteSpace=wrap;html=1;" vertex="1" parent="1">
          <mxGeometry x="720" y="210" width="120" height="60" as="geometry" />
        </mxCell>
        <mxCell id="udb_rScgTkDOsQekTv7v-9" style="edgeStyle=orthogonalEdgeStyle;rounded=0;orthogonalLoop=1;jettySize=auto;html=1;exitX=1;exitY=0.5;exitDx=0;exitDy=0;" edge="1" parent="1" source="udb_rScgTkDOsQekTv7v-3" target="udb_rScgTkDOsQekTv7v-1">
          <mxGeometry relative="1" as="geometry" />
        </mxCell>
        <mxCell id="udb_rScgTkDOsQekTv7v-3" value="Registration Client" style="rounded=0;whiteSpace=wrap;html=1;" vertex="1" parent="1">
          <mxGeometry x="420" y="340" width="120" height="60" as="geometry" />
        </mxCell>
        <mxCell id="udb_rScgTkDOsQekTv7v-8" style="edgeStyle=orthogonalEdgeStyle;rounded=0;orthogonalLoop=1;jettySize=auto;html=1;exitX=0.5;exitY=1;exitDx=0;exitDy=0;entryX=0.367;entryY=-0.003;entryDx=0;entryDy=0;entryPerimeter=0;" edge="1" parent="1" source="udb_rScgTkDOsQekTv7v-4" target="udb_rScgTkDOsQekTv7v-1">
          <mxGeometry relative="1" as="geometry" />
        </mxCell>
        <mxCell id="udb_rScgTkDOsQekTv7v-4" value="Resident Services" style="rounded=0;whiteSpace=wrap;html=1;" vertex="1" parent="1">
          <mxGeometry x="530" y="210" width="120" height="60" as="geometry" />
        </mxCell>
        <mxCell id="udb_rScgTkDOsQekTv7v-5" value="Audit Manager" style="rounded=0;whiteSpace=wrap;html=1;" vertex="1" parent="1">
          <mxGeometry x="740" y="470" width="120" height="60" as="geometry" />
        </mxCell>
        <mxCell id="udb_rScgTkDOsQekTv7v-6" value="Key Manager" style="rounded=0;whiteSpace=wrap;html=1;" vertex="1" parent="1">
          <mxGeometry x="550" y="470" width="120" height="60" as="geometry" />
        </mxCell>
        <mxCell id="udb_rScgTkDOsQekTv7v-7" value="Object Store" style="sketch=0;outlineConnect=0;fontColor=#232F3E;gradientColor=none;fillColor=#3F8624;strokeColor=none;dashed=0;verticalLabelPosition=bottom;verticalAlign=top;align=center;html=1;fontSize=12;fontStyle=0;aspect=fixed;pointerEvents=1;shape=mxgraph.aws4.bucket_with_objects;" vertex="1" parent="1">
          <mxGeometry x="960" y="340" width="57.69" height="60" as="geometry" />
        </mxCell>
        <mxCell id="udb_rScgTkDOsQekTv7v-14" value="&lt;font style=&quot;font-size: 10px&quot;&gt;1&lt;/font&gt;" style="ellipse;whiteSpace=wrap;html=1;aspect=fixed;" vertex="1" parent="1">
          <mxGeometry x="630" y="280" width="20" height="20" as="geometry" />
        </mxCell>
        <mxCell id="udb_rScgTkDOsQekTv7v-15" value="&lt;font style=&quot;font-size: 10px&quot;&gt;2&lt;/font&gt;" style="ellipse;whiteSpace=wrap;html=1;aspect=fixed;" vertex="1" parent="1">
          <mxGeometry x="785" y="300" width="20" height="20" as="geometry" />
        </mxCell>
        <mxCell id="udb_rScgTkDOsQekTv7v-16" value="&lt;font style=&quot;font-size: 10px&quot;&gt;3&lt;/font&gt;" style="ellipse;whiteSpace=wrap;html=1;aspect=fixed;" vertex="1" parent="1">
          <mxGeometry x="890" y="347" width="20" height="20" as="geometry" />
        </mxCell>
        <mxCell id="udb_rScgTkDOsQekTv7v-17" value="&lt;font style=&quot;font-size: 10px&quot;&gt;4&lt;/font&gt;" style="ellipse;whiteSpace=wrap;html=1;aspect=fixed;" vertex="1" parent="1">
          <mxGeometry x="765" y="411" width="20" height="20" as="geometry" />
        </mxCell>
        <mxCell id="udb_rScgTkDOsQekTv7v-18" value="&lt;font style=&quot;font-size: 10px&quot;&gt;5&lt;/font&gt;" style="ellipse;whiteSpace=wrap;html=1;aspect=fixed;" vertex="1" parent="1">
          <mxGeometry x="630" y="411" width="20" height="20" as="geometry" />
        </mxCell>
        <mxCell id="udb_rScgTkDOsQekTv7v-19" value="&lt;font style=&quot;font-size: 10px&quot;&gt;6&lt;/font&gt;" style="ellipse;whiteSpace=wrap;html=1;aspect=fixed;" vertex="1" parent="1">
          <mxGeometry x="590" y="347" width="20" height="20" as="geometry" />
        </mxCell>
      </root>
    </mxGraphModel>
  </diagram>
</mxfile>
